<svg width="148" height="64" viewBox="0 0 148 64" fill="none" xmlns="http://www.w3.org/2000/svg">
<path d="M16.9133 12.606H12.6828V8.62152H10V19.4182H12.6828V15.0949H16.9133V19.4182H19.5846V8.62152H16.9133V12.606Z" fill="#FF0001"/>
<path d="M23.4484 12.7579C23.6777 11.2973 24.4114 10.5378 25.5923 10.5378C26.7961 10.5378 27.6101 11.4375 27.6445 12.7579H23.4484ZM25.6037 8.34106C22.6573 8.34106 20.6739 10.5845 20.6739 13.938C20.6739 17.4318 22.6344 19.6519 25.684 19.6519C28.126 19.6519 29.7999 18.425 30.4304 16.088H27.5413C27.2776 16.941 26.67 17.3734 25.7413 17.3734C24.3541 17.3734 23.5286 16.4736 23.4598 14.9079H30.4304C30.4304 14.534 30.4534 14.3937 30.4534 14.2185C30.4534 10.5845 28.5846 8.34106 25.6037 8.34106Z" fill="#FF0001"/>
<path d="M35.0163 8.54019C34.0648 8.75052 31.6342 9.55676 31.6342 13.6347V19.4187H34.3399V14.6396C34.3399 12.8752 34.5577 12.0456 35.2342 11.5081C35.6469 11.1459 36.2316 10.9472 36.9309 10.9472C37.2176 10.9472 37.3437 10.9706 37.6647 11.0407V8.58693C37.6647 8.58693 36.5755 8.20133 35.0163 8.54019Z" fill="#FF0001"/>
<path d="M43.0185 17.4201C41.5854 17.4201 40.76 16.1465 40.76 14.0082C40.76 11.8582 41.574 10.5962 43.0185 10.5962C44.4402 10.5962 45.2656 11.8348 45.2656 13.9848C45.2656 16.1698 44.4516 17.4201 43.0185 17.4201ZM43.0185 8.34106C39.9804 8.34106 38.0199 10.5612 38.0199 14.0082C38.0199 17.4318 39.9804 19.6636 43.0185 19.6636C46.0338 19.6636 47.9943 17.4435 47.9943 14.0082C47.9943 10.5612 46.0338 8.34106 43.0185 8.34106Z" fill="#FF0001"/>
<path d="M48.0377 25.0753C48.0721 26.9936 46.4412 28.5746 44.5003 28.5746H38.0686C37.8389 28.5746 37.6667 28.7538 37.6667 28.9751V52.49C37.6667 54.3977 36.0932 56.0209 34.1637 55.9998C33.0382 55.9893 32.0505 55.4412 31.4303 54.6085L10.6883 27.2044C10.183 26.5404 9.9188 25.6761 10.0222 24.7591C10.1944 23.157 11.5152 21.8817 13.1346 21.7341C14.398 21.6182 15.5465 22.1873 16.2356 23.1043L30.5115 41.971C30.5919 42.0764 30.7527 42.0237 30.7527 41.8867V25.1386C30.7527 23.2414 32.3032 21.713 34.2097 21.713H44.5921C46.4642 21.713 48.0032 23.2097 48.0377 25.0753ZM54.9631 21.713C53.0566 21.713 51.5061 23.2519 51.5061 25.1386V52.5637C51.5061 54.4609 53.0566 55.9893 54.9631 55.9893C56.8697 55.9893 58.4201 54.4504 58.4201 52.5637V25.1386C58.4201 23.2519 56.8697 21.713 54.9631 21.713ZM82.6421 28.5641C84.5256 28.5641 86.0646 27.0674 86.0991 25.2018C86.1335 23.2835 84.5027 21.7025 82.5617 21.7025H68.8026C66.8961 21.7025 65.3456 23.2414 65.3456 25.128V52.4794C65.3456 54.3977 66.9306 56.0209 68.8715 55.9893C70.7551 55.9576 72.2596 54.4293 72.2596 52.5637V28.9751C72.2596 28.7538 72.4434 28.5746 72.6616 28.5746H82.6421V28.5641ZM138 25.1386V52.5637C138 54.1026 136.978 55.399 135.565 55.8417C135.244 55.9471 134.899 55.9998 134.532 55.9998H120.704H93.0246C92.2436 55.9998 91.5315 55.7468 90.9573 55.3147C90.9113 55.2831 90.8654 55.2515 90.8309 55.2093C90.7505 55.1355 90.6587 55.0617 90.5897 54.988C90.5553 54.9458 90.5093 54.9142 90.4749 54.872C90.2567 54.6296 90.0614 54.3555 89.9121 54.0499C89.6939 53.5967 89.5676 53.1013 89.5676 52.5637V42.6772C89.5676 42.4558 89.3838 42.2767 89.1656 42.2767H86.1106C84.227 42.2767 82.688 40.78 82.6536 38.9144C82.6191 36.9961 84.25 35.4151 86.191 35.4151H89.1656C89.3953 35.4151 89.5676 35.2359 89.5676 35.0146V25.128C89.5676 23.2308 91.1181 21.7025 93.0246 21.7025H106.864C108.771 21.7025 110.321 23.2414 110.321 25.128V38.8406C110.321 40.7378 108.771 42.2661 106.864 42.2661H96.895C96.6653 42.2661 96.4931 42.4453 96.4931 42.6666V48.7166C96.4931 48.938 96.6768 49.1171 96.895 49.1171H106.864H116.833C117.063 49.1171 117.235 48.938 117.235 48.7166V25.1386C117.235 23.2414 118.786 21.713 120.692 21.713H130.661C130.891 21.713 131.063 21.5339 131.063 21.3125V11.5103C131.063 9.592 132.648 7.96883 134.589 8.00045C136.472 8.03207 137.977 9.56038 137.977 11.426L138 25.1386ZM96.4816 28.9751V35.0251C96.4816 35.2465 96.6653 35.4256 96.8835 35.4256H102.994C103.223 35.4256 103.396 35.2465 103.396 35.0251V28.9751C103.396 28.7538 103.212 28.5746 102.994 28.5746H96.8835C96.6653 28.5641 96.4816 28.7538 96.4816 28.9751ZM124.161 28.9751V48.7377C124.161 48.959 124.344 49.1382 124.562 49.1382H130.673C130.902 49.1382 131.075 48.959 131.075 48.7377V28.9751C131.075 28.7538 130.891 28.5746 130.673 28.5746H124.562C124.344 28.5641 124.161 28.7538 124.161 28.9751Z" fill="#FF0001"/>
</svg>
